<?xml version="1.0" encoding="utf-8"?>
<!-- Generator: Adobe Illustrator 21.0.0, SVG Export Plug-In . SVG Version: 6.00 Build 0)  -->
<svg version="1.1" id="Layer_1" xmlns="http://www.w3.org/2000/svg" xmlns:xlink="http://www.w3.org/1999/xlink" x="0px" y="0px"
	 width="3000px" height="2000px" viewBox="0 0 3000 2000" style="enable-background:new 0 0 3000 2000;" xml:space="preserve">
<style type="text/css">
	.st0{fill:url(#SVGID_1_);}
	.st1{fill:#D34F91;}
	.st2{fill:url(#SVGID_2_);}
	.st3{fill:#F8E6DA;}
	.st4{opacity:0.71;}
	.st5{fill:#CE4188;}
	.st6{fill:#C63878;}
	.st7{fill:#AF205A;}
	.st8{fill:#A81951;}
	.st9{fill:#2F162B;}
</style>
<g>
	<linearGradient id="SVGID_1_" gradientUnits="userSpaceOnUse" x1="1501.9482" y1="1292.3075" x2="1489.9507" y2="-879.2582">
		<stop  offset="0" style="stop-color:#F4C1BE"/>
		<stop  offset="1" style="stop-color:#F279A4"/>
	</linearGradient>
	<rect x="0.3" class="st0" width="3000" height="2000"/>
	<path class="st1" d="M3000,593.6c0,0,0,0-32.9-2.8s-107.8,101-224.2,138.4s-221.9,164.6-362.7,195.4
		c-140.7,30.9-146.7,2.8-179.7-129.6s-62.6-134-173.7-145.3c-140.7-14.3-203.6,67.3-326.4,126.2c-122.8,58.9-107.8,131.8-179.7,129
		c-71.9-2.8-119.8,92.6-200.6,95.7c-80.8,3.1-140.7,8.1-188.6-95.7c-47.9-103.8-176.7-112.2-311.4-53.3
		c-134.7,58.9-269.5-8.4-318.5-14c-49-5.6-193.6-129.1-238.5-129.1c-44.9,0-158.2,61.4-182.7,0S0,649.7,0,649.7V2000h3000V593.6z"/>
	<g>
		<linearGradient id="SVGID_2_" gradientUnits="userSpaceOnUse" x1="2046.3057" y1="135.5049" x2="2546.3057" y2="419.5049">
			<stop  offset="0" style="stop-color:#F4C1BE"/>
			<stop  offset="1" style="stop-color:#F8E6DA"/>
		</linearGradient>
		<circle class="st2" cx="2433.8" cy="355.6" r="180.8"/>
		<path class="st3" d="M2614.6,355.6c0-99.8-80.9-180.8-180.8-180.8c-63.6,0-119.5,32.8-151.7,82.4c32.9-44.7,85.9-73.7,145.7-73.7
			c99.8,0,180.8,80.9,180.8,180.8c0,36.3-10.7,70.1-29.1,98.4C2601.6,432.7,2614.6,395.7,2614.6,355.6z"/>
	</g>
	<g class="st4">
		<circle class="st3" cx="1327.2" cy="782.6" r="12.2"/>
		<g>
			<g>
				<circle class="st3" cx="219" cy="191" r="12.2"/>
				<circle class="st3" cx="629.2" cy="343.4" r="12.2"/>
				<circle class="st3" cx="1093.2" cy="178.8" r="12.2"/>
				<circle class="st3" cx="881.2" cy="623.1" r="12.2"/>
				<circle class="st3" cx="1573.2" cy="282.1" r="12.2"/>
				<circle class="st3" cx="1742.9" cy="114.1" r="12.2"/>
				<circle class="st3" cx="2014.9" cy="490.1" r="12.2"/>
				<circle class="st3" cx="2204.9" cy="150.4" r="12.2"/>
				<circle class="st3" cx="2841.1" cy="150.4" r="12.2"/>
				<circle class="st3" cx="2469.1" cy="674.4" r="12.2"/>
				<circle class="st3" cx="357.2" cy="225" r="7"/>
				<circle class="st3" cx="304" cy="294.3" r="7"/>
				<circle class="st3" cx="155" cy="438.3" r="7"/>
				<circle class="st3" cx="648.5" cy="452.3" r="7"/>
				<circle class="st3" cx="1058" cy="232" r="7"/>
				<circle class="st3" cx="881.2" cy="232" r="7"/>
				<circle class="st3" cx="817" cy="331.2" r="7"/>
				<circle class="st3" cx="754.3" cy="269.9" r="7"/>
				<circle class="st3" cx="472" cy="287.3" r="7"/>
				<circle class="st3" cx="949" cy="512" r="7"/>
				<circle class="st3" cx="1153" cy="711.2" r="7"/>
				<circle class="st3" cx="1244.9" cy="535" r="7"/>
				<circle class="st3" cx="1421" cy="655.2" r="7"/>
				<circle class="st3" cx="1524" cy="391" r="7"/>
				<circle class="st3" cx="1500" cy="301.4" r="7"/>
				<circle class="st3" cx="1531" cy="198" r="7"/>
				<circle class="st3" cx="1782" cy="232" r="7"/>
				<circle class="st3" cx="1637" cy="459.4" r="7"/>
				<circle class="st3" cx="1943" cy="262.9" r="7"/>
				<circle class="st3" cx="2119" cy="262.9" r="7"/>
				<circle class="st3" cx="2126" cy="549.1" r="7"/>
				<circle class="st3" cx="1685" cy="655.2" r="7"/>
				<circle class="st3" cx="2351" cy="738" r="7"/>
				<circle class="st3" cx="2614" cy="563.2" r="7"/>
				<circle class="st3" cx="2289" cy="610.9" r="7"/>
				<circle class="st3" cx="2877" cy="301.4" r="7"/>
				<circle class="st3" cx="162" cy="282" r="3.8"/>
				<circle class="st3" cx="338" cy="391" r="3.8"/>
				<circle class="st3" cx="364.2" cy="519" r="3.8"/>
				<circle class="st3" cx="507.2" cy="398" r="3.8"/>
				<circle class="st3" cx="655.5" cy="198" r="3.8"/>
				<circle class="st3" cx="1033" cy="343.4" r="3.8"/>
				<circle class="st3" cx="810" cy="502.3" r="3.8"/>
				<circle class="st3" cx="694.5" cy="586.9" r="3.8"/>
				<circle class="st3" cx="999.2" cy="623.1" r="3.8"/>
				<circle class="st3" cx="1160" cy="431.2" r="3.8"/>
				<circle class="st3" cx="1376.6" cy="490.1" r="3.8"/>
				<circle class="st3" cx="1327.2" cy="294.3" r="3.8"/>
				<circle class="st3" cx="1218.2" cy="343.4" r="3.8"/>
				<circle class="st3" cx="1839.2" cy="401.8" r="3.8"/>
				<circle class="st3" cx="1936" cy="225" r="3.8"/>
				<circle class="st3" cx="1855.3" cy="590.7" r="3.8"/>
				<circle class="st3" cx="2126" cy="431.2" r="3.8"/>
				<circle class="st3" cx="2296" cy="730.9" r="3.8"/>
				<circle class="st3" cx="2681" cy="466.4" r="3.8"/>
				<circle class="st3" cx="2481.3" cy="583.2" r="3.8"/>
				<circle class="st3" cx="2915" cy="225" r="3.8"/>
			</g>
		</g>
	</g>
	<path class="st5" d="M2373.4,1196.1c0,0,109.6-75.1,104.1-105.1s-34.5-37-54.5-31c-20,6-55-27.3-72-37.4
		c-17.9-10.7-100-31.6-128-28.6s-93-109-168-117c-57.2-6.1-76.5,21.5-76.5,21.5l-39.5,80.4l142,206.6L2373.4,1196.1z"/>
	<path class="st5" d="M2983,959l17-2V831c0,0-51-34-77-52s-61.8-18-86.9,5s-62.7,66-86.9,67c-24.2,1-60.2,41-61.2,53s-31,59-53,57
		s-6,29-6,29l218-29L2983,959z"/>
	<path class="st6" d="M3000,939c0,0-33-12.8-87-25.6c-54-12.8-180,46.1-264,38c-84-8.1-150,77.2-210,151.5c-60,74.3-228-23-291-20.5
		s-136.8-167.6-206.5-221.6c-104.4-81-225,2.6-267,25.6c-24.1,13.2-67.2,53.1-123.4,97.7c-8.3-4.8-15.9-7.8-22-7.9
		c-31.1-0.6-54,39.3-84,33.7c-18.6-3.5-28.7,36.7-36.1,71.4c-0.7,0.4-1.4,0.8-2.1,1.2c-126,69.1-195,7.7-279,15.4
		c-84,7.7-102,46.1-168,48.8c-66,2.7-198-266.4-288-207.6c-90,58.9-234-17.9-285.2-28.6c-51.2-10.7-95.8-94.3-149.8-140.4
		C182.7,723.9,0,808.4,0,808.4V2000h3000V939z"/>
	<g>
		<path class="st7" d="M2109.2,1491.1c-17.2-32-104.8-40-152.8-44s-158-248-180-292c-22-44-90-22-112-12s-66,62-102,55.7
			c-36-6.3-90,87.8-90,87.8l-92,122.2l334,235.8C1714.4,1644.5,2126.4,1523.1,2109.2,1491.1z"/>
		<path class="st7" d="M782.3,1355.7c0-42.6-77-120.7-111-111.5s-65.7-82-88.4-95.2s-97.7-151.4-126.8-148.2
			c-40.4,4.4-103.9-6.3-134.8-20.6c-30.9-14.3-114.6,103-114.6,103l13.8,166.2l322.1,142.3C542.8,1391.6,782.3,1398.2,782.3,1355.7z
			"/>
		<g>
			<path class="st8" d="M3000,982.4c-270-32.7-288.1,57.2-375.1,73.6c-67.2,12.6-61.1,109.8-108.7,166c-6.5,7.6-17.5,10.7-27.6,7.8
				c-14.2-4-28.6-7-37.7-2.8c-20,9.1-52,23.6-103,15.4c-41.7-6.7-53,13.6-63,51.8c-10,38.2-42,36.3-78,49.1
				c-25.6,9.1-37.1,60.4-43,93.9c-25.1,15.9-49.6,29.3-73.2,38.2c-114,43.2-174,74-291,74s-171-174.4-285-297.1
				c-114-122.7-192-81.8-294-100.8c-102-19.1-69,32.7-150,35.4c-81,2.7-51,51.8-183,111.8s-339-13.6-348.8-40.9
				c-9.8-27.3-95.3-79-185.3-85c-90-5.9-120-285.7-156-343.5C161.7,771.4,0,799.7,0,799.7V2000h3000V982.4z"/>
			<path class="st8" d="M815.1,981.7c-3.2-3.2-8.5-5.6-13.1-5.4c-4.8,0.2-9.7,1.8-13,5.4c-1,1.2-1.9,2.5-2.9,3.7
				c-1.7,2.9-2.5,6-2.5,9.3c-1.7,17.3-2.8,35.3,2.7,52.1c5.7,17.3,17.5,32.9,34.2,40.9c6.2,3,12.8,5.2,19.5,6.3
				c0.7,24.6,1.3,49.2,2,73.9c-0.7-0.1-1.5-0.2-2.3-0.2c-0.1,0-0.3,0-0.4,0c-1.1-0.2-2.2-0.5-3.3-0.9c-1.2-0.6-2.4-1.3-3.5-2.1
				c-1.1-1-2.1-2-3.1-3.1c-0.9-1.4-1.8-2.9-2.5-4.4c-1.4-3.9-2.3-8-3-12.1c-0.2-2-0.5-4-0.7-6.1c-0.5-5-1.8-9.4-5.4-13
				c-3.2-3.2-8.5-5.6-13.1-5.4c-4.8,0.2-9.7,1.8-13,5.4c-3.1,3.4-5.8,8.3-5.4,13.1c1.5,14.7,3.3,30.5,12.4,42.7
				c4.8,6.4,10.2,11.8,17.2,15.9c7.4,4.3,15.5,6.4,24,6.8c1,0,2.1,0,3.1-0.2c0.3,9.9,0.5,19.7,0.8,29.6c0.7,26.8,1.4,53.6,2.2,80.4
				c0.1,4.8,2,9.6,5.4,13c3.2,3.2,8.5,5.6,13.1,5.4c9.8-0.5,18.7-8.2,18.4-18.5c-0.7-27.7-1.5-55.5-2.2-83.2
				c8.9-2,17.2-6.5,24.4-12.6c11-9.4,17.5-23.9,20.7-37.7c6.6-28.1,4.6-57.4,3.4-85.9c-0.7-15.7-1.1-31.5,0.3-47.2
				c0.4-4.4-2.4-10-5.4-13c-3.2-3.2-8.5-5.6-13.1-5.4c-4.8,0.2-9.7,1.8-13,5.4c-3.5,3.8-4.9,7.9-5.4,13.1c-2.7,30,1.3,59.9,0.9,89.9
				c-0.1,7.8-0.5,15.5-1.4,23.3c-1,6.7-2.4,13.4-4.8,19.8c-1.2,2.6-2.6,5.1-4.3,7.5c-1.1,1.2-2.2,2.4-3.5,3.5c-0.2-7-0.4-14-0.6-21
				c-1.3-47.7-2.6-95.3-3.9-143c-0.7-26.8-1.4-53.6-2.2-80.4c-0.1-4.8-2-9.6-5.4-13c-3.2-3.2-8.5-5.6-13.1-5.4
				c-9.8,0.5-18.7,8.2-18.4,18.5c1,36.1,1.9,72.1,2.9,108.2c-2.4-1.1-4.7-2.5-6.8-4c-1.8-1.6-3.5-3.3-5.1-5.1
				c-1.6-2.4-3.1-4.8-4.3-7.4c-1.4-3.8-2.5-7.7-3.2-11.7c-1.1-11-0.1-22,0.9-33C821,990.3,818.1,984.7,815.1,981.7z"/>
			<path class="st8" d="M1815.3,1217.3c-10.1-0.1-18.7,7.2-19.4,17.5c-2.6,39.1-4.6,78.3-5.9,117.5c-0.5-0.5-0.9-1-1.4-1.6
				c-0.8-1.4-1.5-2.9-2.2-4.4c-1.7-5.5-2.6-11.1-3.3-16.8c-0.9-6.4-1.6-12.9-2.2-19.4c-0.8-11.1-1.3-22.3-1.2-33.5
				c0-9.6-7.2-19.3-17.5-19.4c-9.6-0.1-19.3,7.2-19.4,17.5c-0.1,18.3,1.1,36.6,3.2,54.7c0.9,7.9,1.8,15.9,4,23.6
				c2.6,9.2,6.7,18.6,13.8,25.2c4.9,4.6,9.9,8,16.2,10.4c2.9,1.1,5.9,1.7,8.9,2c-0.7,30.5-1,61.1-0.9,91.7
				c0.1,23.3,0.3,46.5,0.9,69.8c0.1,5,1.3,9.5,4.7,13.3c3,3.4,8.2,6,12.8,6.1c9.4,0.1,19.6-7.2,19.4-17.5
				c-0.3-12.6-0.5-25.3-0.6-37.9c5.2-0.4,10.3-1.7,15-3.6c11.2-4.5,18.8-14.3,23.4-25.1c3.8-9,4.5-19.3,5.2-29
				c0.7-10.5,1.3-21,2-31.5c0.8-12,1.5-24.1,2.3-36.1c0.6-9.6-7.6-19.3-17.5-19.4c-10.1-0.1-18.7,7.2-19.4,17.5
				c-0.9,14.3-1.8,28.5-2.7,42.8c-0.8,12.2-0.8,24.6-2.7,36.7c-0.5,2.3-1.2,4.5-2,6.7c-0.4,0.7-0.9,1.4-1.4,2.1
				c-0.3,0.3-0.6,0.6-1,0.9c-0.5,0.3-0.9,0.5-1.4,0.7c0-16.3,0.1-32.7,0.3-49c0.4-35.1,1.4-70.2,2.9-105.3c1.9-0.3,3.8-0.9,5.7-1.7
				c21.6-8.7,36-30.4,38.4-53.1c1-9.6-7.9-19.3-17.5-19.4c-10.5-0.1-18.3,7.2-19.4,17.5c0,0.4-0.1,0.8-0.1,1.1
				c-0.6,2.3-1.3,4.5-2.2,6.6c-0.8,1.5-1.8,3-2.7,4.4c0.8-14.5,1.7-29,2.6-43.5C1833.5,1227,1825.2,1217.4,1815.3,1217.3z"/>
			<path class="st8" d="M1869.1,1533c-2-0.3-4-0.4-6.1-0.3c-0.5,0-1,0.1-1.5,0.1c-0.5,0.1-1,0.1-1.5,0.2c-0.5,0.1-1,0.2-1.5,0.3
				c-0.5,0.1-1,0.2-1.5,0.4l-0.7,0.2c-0.2,0.1-0.5,0.1-0.7,0.2c-0.5,0.2-0.9,0.4-1.4,0.6c-0.5,0.2-0.9,0.4-1.4,0.7
				c-0.4,0.3-0.9,0.5-1.3,0.8l0,0.6l1.3,0c0.4,0,0.9,0,1.3,0c0.9,0,1.8,0.1,2.7,0.2c1.8,0.1,3.6,0.3,5.3,0.6c1.8,0.3,3.5,0.6,5.2,1
				c1.7,0.4,3.4,0.9,5.1,1.5c1.7,0.5,3.3,1.1,5,1.8c1.6,0.7,3.2,1.4,4.8,2.2c0.2,0.1,0.4,0.2,0.6,0.3c-0.2,1.7-0.4,3.4-0.6,5.1
				l0.7,0.1c0.5-0.6,1-1.3,1.4-1.9c0.1,0.7,0.3,1.3,0.4,2l0.7,0c0,0,0,0,0,0l0,0c0.6-0.9,1.3-1.8,2-2.7c0,0,0.1,0,0.1,0.1
				c0.4,2,1,3.9,1.8,5.8l0.7-0.2c0.3-1.2,0.5-2.3,0.7-3.3c0,0,0-0.1,0-0.1c0.1,0.1,0.3,0.2,0.4,0.3l0.5-0.4
				c-0.1-0.6-0.3-1.2-0.6-1.7c0.1-0.4,0.1-0.8,0.2-1.2c0.3-1.5,0.5-2.9,0.8-4.3c1-1,2-2,3.1-2.9c1.2-1.1,2.5-2.1,3.8-3
				c1.3-1,2.7-1.9,4-2.7c1.4-0.8,2.8-1.6,4.3-2.3c1.5-0.7,2.9-1.4,4.5-1.9c0.8-0.3,1.5-0.6,2.3-0.8c0.4-0.1,0.8-0.3,1.2-0.4l1.2-0.4
				l-0.1-0.6c-0.5-0.2-0.9-0.3-1.4-0.4c-0.5-0.1-0.9-0.2-1.4-0.3c-0.5-0.1-0.9-0.1-1.4-0.2c-0.2,0-0.5,0-0.7,0l-0.7,0
				c-0.5,0-0.9,0-1.4,0c-0.5,0-0.9,0.1-1.4,0.1c-0.5,0-0.9,0.1-1.4,0.2c-0.5,0.1-0.9,0.2-1.4,0.3c-1.8,0.4-3.5,1-5.2,1.8
				c-1.7,0.8-3.3,1.7-4.7,2.8c-0.2,0.1-0.3,0.3-0.5,0.4c0.2-0.6,0.4-1.2,0.6-1.8c0.6-1.6,1.3-3.1,2.2-4.6c0.9-1.5,1.8-3,3-4.4
				c1.2-1.5,2.5-3,4.1-4.5c0.8-0.8,1.6-1.5,2.5-2.3l0.3-0.3l0.3-0.3l0.7-0.6c0.5-0.4,0.9-0.8,1.4-1.3l-0.2-0.6l-1.7,0.6l-0.9,0.3
				c-0.1,0-0.3,0.1-0.4,0.1l-0.4,0.2c-1.1,0.5-2.3,0.9-3.3,1.4c-2.2,1-4.2,2.3-6.1,3.8l-1.4,1.1c-0.4,0.4-0.8,0.8-1.3,1.2
				c-0.4,0.4-0.8,0.9-1.2,1.3l-0.6,0.7c-0.2,0.2-0.3,0.5-0.5,0.7l-0.5,0.7c-0.2,0.2-0.3,0.5-0.5,0.7l-0.2,0.3c0-0.7,0-1.5-0.1-2.2
				c-0.1-1.2-0.2-2.5-0.4-3.7c-0.1-0.6-0.2-1.2-0.3-1.9c-0.1-0.6-0.2-1.2-0.4-1.9c-0.3-1.2-0.6-2.5-1.1-3.7
				c-0.2-0.6-0.4-1.2-0.7-1.9c-0.3-0.6-0.5-1.2-0.9-1.8c-1.2-2.4-2.8-4.9-5-7c-1.1-1-2.3-2-3.7-2.8c-1.4-0.8-2.9-1.4-4.4-1.6
				l-0.4,0.5c2.2,1.3,3.9,3.3,5.1,5.3c1.3,2.1,2.1,4.3,2.8,6.6c1.3,4.5,1.9,9.2,2.2,13.8c0.2,3.1,0.2,6.2,0.1,9.4
				c-0.7-1-1.5-2-2.4-2.9c-1.5-1.5-3.2-2.9-5.1-4.1c-1.9-1.2-4-2-6.1-2.7c-0.5-0.1-1.1-0.3-1.6-0.4c-0.3-0.1-0.5-0.1-0.8-0.2
				c-0.3,0-0.6-0.1-0.8-0.1c-0.6-0.1-1.1-0.2-1.6-0.2c-0.6,0-1.1,0-1.6-0.1c-2.2,0-4.3,0.3-6.4,1l-0.1,0.6l1.4,0.3
				c0.5,0.1,0.9,0.2,1.4,0.3l1.3,0.4c0.2,0.1,0.4,0.1,0.7,0.2l0.7,0.2l1.3,0.4l1.3,0.5l0.6,0.3c0.2,0.1,0.4,0.2,0.6,0.3l1.2,0.6
				c1.6,0.9,3.2,1.8,4.6,2.8c1.4,1.1,2.8,2.2,4,3.5c1.3,1.3,2.4,2.8,3.5,4.3c-1.5-0.7-3-1.3-4.5-1.9
				C1873.1,1533.8,1871.1,1533.3,1869.1,1533z"/>
			<path class="st8" d="M2353.4,1229.1c-2.3-0.9-4.7-1.6-7.1-2c-0.6-0.1-1.2-0.2-1.8-0.3c-0.6-0.1-1.2-0.2-1.8-0.2
				c-0.6,0-1.2-0.1-1.8-0.1c-0.6,0-1.2,0-1.8,0l-0.9,0.1c-0.3,0-0.6,0-0.9,0.1c-0.6,0.1-1.2,0.2-1.8,0.3c-0.6,0.1-1.2,0.3-1.8,0.4
				c-0.6,0.2-1.2,0.4-1.8,0.6l-0.1,0.7l1.6,0.4c0.5,0.1,1.1,0.2,1.6,0.4c1,0.3,2.1,0.6,3.1,0.9c2.1,0.6,4.1,1.4,6.1,2.2
				c2,0.8,4,1.7,5.9,2.7c1.9,1,3.8,2,5.6,3.1c1.8,1.1,3.6,2.3,5.4,3.5c1.7,1.2,3.4,2.6,5,3.9c0.2,0.2,0.4,0.3,0.6,0.5
				c-0.7,2-1.4,3.9-2.1,5.9l0.8,0.3c0.8-0.6,1.5-1.2,2.2-1.9c0,0.8,0,1.6-0.1,2.4l0.8,0.2c0,0,0,0,0,0l0,0c1-0.9,2-1.8,3.1-2.6
				c0,0,0.1,0.1,0.1,0.1c0,2.4,0.1,4.9,0.5,7.3l0.9-0.1c0.7-1.3,1.2-2.5,1.8-3.8c0,0,0-0.1,0-0.1c0.1,0.2,0.3,0.3,0.4,0.5l0.7-0.4
				c0-0.8-0.1-1.5-0.2-2.2c0.2-0.5,0.4-0.9,0.6-1.4c0.7-1.7,1.4-3.3,2.1-4.9c1.4-0.9,2.9-1.8,4.4-2.5c1.7-0.9,3.5-1.8,5.3-2.5
				c1.8-0.8,3.7-1.5,5.5-2.1c1.9-0.6,3.8-1.1,5.7-1.6c1.9-0.4,3.9-0.8,5.8-1.1c1-0.2,2-0.3,2.9-0.4c0.5-0.1,1-0.1,1.5-0.1l1.5-0.1
				l0-0.7c-0.5-0.3-1-0.6-1.5-0.9c-0.5-0.3-1-0.5-1.6-0.7c-0.5-0.2-1.1-0.4-1.6-0.6c-0.3-0.1-0.5-0.2-0.8-0.2l-0.8-0.2
				c-0.5-0.1-1.1-0.3-1.7-0.4c-0.6-0.1-1.1-0.2-1.7-0.2c-0.6-0.1-1.1-0.1-1.7-0.1c-0.6,0-1.1-0.1-1.7,0c-2.2,0-4.5,0.3-6.7,0.7
				c-2.2,0.5-4.3,1.1-6.4,2c-0.2,0.1-0.5,0.2-0.7,0.3c0.4-0.6,0.8-1.3,1.2-1.9c1.2-1.7,2.4-3.3,3.9-4.8c1.4-1.5,3-3,4.8-4.4
				c1.8-1.4,3.8-2.8,6.1-4.2c1.1-0.7,2.3-1.3,3.6-2.1l0.5-0.3l0.5-0.3l1-0.5c0.7-0.4,1.3-0.7,2-1.2l-0.1-0.7l-2.2,0.2l-1.1,0.1
				c-0.2,0-0.4,0-0.5,0.1l-0.5,0.1c-1.4,0.2-2.9,0.4-4.3,0.8c-2.9,0.6-5.6,1.6-8.2,2.8l-1.9,1c-0.6,0.4-1.2,0.7-1.8,1.1
				c-0.6,0.4-1.2,0.8-1.7,1.2l-0.8,0.6c-0.3,0.2-0.5,0.4-0.8,0.7l-0.8,0.7c-0.3,0.2-0.5,0.4-0.8,0.7l-0.3,0.3
				c0.2-0.9,0.4-1.7,0.5-2.6c0.2-1.5,0.4-3,0.6-4.5c0-0.8,0.1-1.5,0.1-2.3c0-0.8,0.1-1.5,0-2.3c0-1.6-0.1-3.1-0.3-4.7
				c-0.1-0.8-0.2-1.6-0.3-2.4c-0.2-0.8-0.3-1.6-0.5-2.4c-0.8-3.2-2-6.5-4-9.6c-1-1.5-2.2-3-3.6-4.3c-1.4-1.3-3-2.4-4.8-3l-0.6,0.5
				c2.3,2.2,3.7,4.9,4.6,7.7c0.9,2.8,1.4,5.7,1.5,8.5c0.3,5.7-0.2,11.4-1.2,17c-0.6,3.7-1.5,7.4-2.4,11.1c-0.6-1.4-1.2-2.7-2-4.1
				c-1.4-2.2-3-4.3-5-6.2c-1.9-1.9-4.2-3.5-6.5-4.9c-0.6-0.3-1.2-0.6-1.8-0.9c-0.3-0.1-0.6-0.3-0.9-0.4c-0.3-0.1-0.6-0.2-0.9-0.4
				c-0.6-0.2-1.3-0.5-1.9-0.7c-0.7-0.2-1.3-0.4-1.9-0.5c-2.6-0.6-5.2-0.9-7.9-0.5l-0.3,0.7l1.5,0.8c0.5,0.3,1,0.5,1.5,0.8l1.5,0.8
				c0.2,0.1,0.5,0.3,0.7,0.4l0.7,0.5l1.4,0.9l1.4,1l0.7,0.5c0.2,0.2,0.4,0.3,0.7,0.5l1.3,1c1.7,1.5,3.3,2.9,4.7,4.6
				c1.4,1.6,2.7,3.4,3.7,5.2c1.2,1.9,2.1,4,2.9,6c-1.5-1.3-3.2-2.4-4.9-3.4C2357.9,1231.1,2355.7,1230,2353.4,1229.1z"/>
			<path class="st8" d="M775.5,1308.3c-2.4-0.3-4.9-0.3-7.4-0.1c-0.6,0-1.2,0.1-1.8,0.2c-0.6,0.1-1.2,0.2-1.8,0.3
				c-0.6,0.1-1.2,0.2-1.8,0.4c-0.6,0.2-1.2,0.3-1.8,0.5l-0.9,0.3c-0.3,0.1-0.6,0.2-0.9,0.3c-0.6,0.2-1.1,0.5-1.7,0.7
				c-0.6,0.2-1.1,0.6-1.6,0.9c-0.5,0.3-1.1,0.6-1.6,1l0.1,0.7l1.6,0c0.5,0,1.1,0,1.6,0c1.1,0,2.2,0,3.3,0.1c2.2,0.1,4.3,0.3,6.5,0.5
				c2.1,0.3,4.3,0.6,6.4,1c2.1,0.4,4.2,0.9,6.3,1.6c2.1,0.6,4.1,1.3,6.1,2c2,0.7,3.9,1.6,5.9,2.5c0.2,0.1,0.5,0.2,0.7,0.3
				c-0.1,2.1-0.3,4.2-0.5,6.2l0.9,0.1c0.6-0.8,1.1-1.6,1.6-2.4c0.2,0.8,0.4,1.6,0.5,2.4l0.9,0c0,0,0,0,0,0l0.1,0
				c0.7-1.1,1.5-2.3,2.3-3.4c0,0,0.1,0.1,0.1,0.1c0.6,2.4,1.4,4.7,2.4,6.9l0.8-0.3c0.3-1.4,0.5-2.8,0.7-4.1c0,0,0-0.1,0-0.1
				c0.2,0.1,0.4,0.2,0.5,0.4l0.6-0.5c-0.2-0.7-0.5-1.4-0.8-2.1c0.1-0.5,0.1-1,0.2-1.5c0.3-1.8,0.5-3.5,0.8-5.2
				c1.2-1.2,2.3-2.5,3.6-3.6c1.4-1.3,2.9-2.6,4.5-3.8c1.5-1.2,3.1-2.4,4.8-3.5c1.6-1.1,3.4-2.1,5.1-3c1.7-0.9,3.5-1.8,5.4-2.5
				c0.9-0.4,1.8-0.8,2.8-1.1c0.5-0.2,0.9-0.3,1.4-0.5l1.4-0.5l-0.2-0.7c-0.6-0.2-1.1-0.3-1.7-0.5c-0.6-0.1-1.1-0.2-1.7-0.3
				c-0.6-0.1-1.1-0.1-1.7-0.1c-0.3,0-0.6,0-0.9,0l-0.8,0c-0.6,0-1.1,0-1.7,0.1c-0.6,0-1.1,0.1-1.7,0.2c-0.6,0.1-1.1,0.2-1.7,0.3
				c-0.5,0.1-1.1,0.2-1.6,0.4c-2.2,0.6-4.3,1.4-6.3,2.4c-2,1-3.9,2.2-5.6,3.6c-0.2,0.2-0.4,0.3-0.6,0.5c0.2-0.7,0.5-1.5,0.7-2.2
				c0.7-2,1.5-3.9,2.5-5.7c1-1.8,2.1-3.7,3.5-5.5c1.4-1.8,2.9-3.7,4.8-5.6c0.9-1,1.9-1.9,2.9-2.9l0.4-0.4l0.4-0.4l0.8-0.8
				c0.5-0.5,1.1-1.1,1.6-1.7l-0.3-0.7l-2.1,0.8l-1,0.4c-0.2,0.1-0.3,0.1-0.5,0.2l-0.5,0.2c-1.3,0.6-2.7,1.1-4,1.9
				c-2.6,1.3-5,3-7.2,4.8l-1.6,1.4c-0.5,0.5-1,1-1.5,1.5c-0.5,0.5-0.9,1.1-1.4,1.6l-0.7,0.8c-0.2,0.3-0.4,0.6-0.6,0.9l-0.6,0.9
				c-0.2,0.3-0.4,0.6-0.6,0.9l-0.2,0.3c0-0.9-0.1-1.8-0.2-2.6c-0.1-1.5-0.3-3-0.6-4.5c-0.2-0.8-0.3-1.5-0.5-2.3
				c-0.2-0.8-0.3-1.5-0.6-2.3c-0.4-1.5-0.9-3-1.5-4.5c-0.3-0.7-0.6-1.5-0.9-2.2c-0.4-0.7-0.7-1.5-1.1-2.2c-1.6-2.9-3.6-5.8-6.3-8.2
				c-1.4-1.2-2.9-2.3-4.6-3.2c-1.7-0.9-3.5-1.5-5.4-1.7l-0.4,0.6c2.7,1.5,4.8,3.8,6.4,6.2c1.6,2.5,2.8,5.1,3.7,7.8
				c1.8,5.4,2.7,11.1,3.2,16.7c0.4,3.8,0.5,7.6,0.6,11.4c-0.9-1.2-1.9-2.3-3-3.4c-1.9-1.8-4.1-3.4-6.4-4.7c-2.4-1.3-4.9-2.3-7.6-3
				c-0.7-0.2-1.3-0.3-2-0.4c-0.3-0.1-0.7-0.1-1-0.2c-0.3,0-0.7-0.1-1-0.1c-0.7-0.1-1.3-0.1-2-0.2c-0.7,0-1.3,0-2,0
				c-2.7,0.1-5.3,0.5-7.8,1.5l-0.1,0.7l1.7,0.3c0.6,0.1,1.1,0.2,1.7,0.3l1.6,0.4c0.3,0.1,0.5,0.1,0.8,0.2l0.8,0.3l1.6,0.5l1.6,0.6
				l0.8,0.3c0.3,0.1,0.5,0.2,0.8,0.3l1.5,0.7c2,1,3.9,2,5.7,3.2c1.8,1.2,3.4,2.6,5,4c1.6,1.6,3.1,3.3,4.4,5.1
				c-1.8-0.8-3.7-1.5-5.6-2.1C780.3,1309,777.9,1308.5,775.5,1308.3z"/>
		</g>
	</g>
	<g>
		<path class="st9" d="M1303.4,1572.2c3.1-5.8,6.7-11.3,11.1-16.2c4.3-4.8,9.6-9,15.7-11.1l-0.5-1.7c-3.8-0.5-7.7,0.1-11.5,1.2
			c-3.8,1.2-7.3,3-10.6,5.1c-6.6,4.3-11.9,9.9-16.5,15.8c-1.1,1.5-2.2,3-3.3,4.5c-1,1.5-2,3.1-2.9,4.7c-1.9,3.1-3.6,6.3-5.1,9.6
			c-0.8,1.6-1.5,3.3-2.2,4.9c-0.7,1.6-1.4,3.3-2,4.9c-1.3,3.3-2.4,6.7-3.4,10c-2.3,7.6-3.9,15.3-5,23c0,0,0,0,0,0l-2.1-4l-2.4-3.9
			c-0.4-0.7-0.8-1.3-1.3-1.9l-1.3-1.8c-0.5-0.6-0.9-1.2-1.4-1.8l-1.5-1.7c-1-1.1-1.9-2.3-3.1-3.4c-1.1-1.1-2.1-2.1-3.3-3.2l-3.5-2.9
			c-4.8-3.6-10-6.8-15.5-9.1c-2.7-1.3-5.6-2.2-8.4-3.2l-1.1-0.4c-0.4-0.1-0.7-0.2-1.1-0.3l-2.2-0.6l-4.3-1.1l-0.4,1.7
			c1.2,1.2,2.4,2.3,3.6,3.4l1.8,1.5l0.9,0.7l0.8,0.8c2.2,2.1,4.5,3.9,6.4,6c4.1,3.8,7.6,7.8,10.8,11.6c3.2,3.8,5.7,7.8,8.1,11.8
			c2.4,3.9,4.3,8.1,6.1,12.5c3.5,8.7,6.3,18.4,8.7,28.9c1.2,5.3,2.4,10.8,3.6,16.5c0.3,1.4,0.6,2.9,0.9,4.4c0.4,1.5,0.6,2.9,1,4.5
			c0.7,3,1.4,6.1,2.2,9.3l1.7,0.5c2.9-10.3,4.4-21,4.6-31.7c0.2-1,0.3-1.9,0.5-2.9c0.1-0.9,0.3-1.8,0.5-2.8c3.2-1.7,6.4-3.3,9.8-4.8
			c4-1.8,8.1-3.4,12.2-4.8c4.2-1.4,8.3-2.7,12.6-3.8c4.2-1.1,8.5-1.9,12.9-2.6c4.3-0.7,8.7-1.2,13-1.5c4.4-0.3,8.7-0.3,13.1-0.3
			c4.4,0.1,8.8,0.4,13.1,1c2.2,0.2,4.3,0.6,6.5,0.9c1.1,0.1,2.2,0.4,3.2,0.6l3.2,0.6l0.4-1.7c-0.9-1.1-1.8-2-2.8-2.9
			c-1-0.9-1.9-1.8-3-2.6c-1-0.8-2.1-1.5-3.1-2.3c-0.5-0.4-1.1-0.7-1.6-1l-1.6-1c-1.1-0.6-2.2-1.2-3.3-1.8c-1.1-0.6-2.3-1-3.4-1.5
			c-1.2-0.5-2.3-0.9-3.5-1.3c-1.2-0.4-2.4-0.8-3.6-1.1c-4.8-1.3-9.8-2-14.7-2.2c-4.9-0.2-9.9,0.1-14.8,0.9
			c-9.7,1.6-19.1,5-27.4,10.4c-2.1,1.3-4.1,2.8-6,4.4c-1,0.8-1.9,1.6-2.8,2.5c-0.9,0.9-1.8,1.7-2.7,2.7c-1.5,1.7-3,3.4-4.4,5.3
			c0.1-0.3,0.1-0.6,0.2-0.9c0.2-0.4,0.4-0.8,0.6-1.1c2.2-4,4.7-7.9,7.4-11.5c5.4-7.3,11.9-13.9,19.3-19.1c3.7-2.6,7.6-4.9,11.7-6.8
			c4.1-1.9,8.4-3.3,12.8-4.6l3.3-0.8c0.6-0.1,1.1-0.3,1.7-0.4l1.7-0.3l3.4-0.5l3.4-0.3l1.7-0.2c0.6-0.1,1.1-0.1,1.7-0.1l3.4-0.1
			c1.1-0.1,2.3,0,3.4,0l3.4,0l0.1-1.7c-4.4-3.5-9.3-5.8-14.5-7.3c-1.3-0.4-2.6-0.7-3.9-1c-1.3-0.3-2.7-0.4-4-0.6
			c-0.7-0.1-1.4-0.2-2-0.3c-0.7,0-1.4-0.1-2-0.1c-1.4,0-2.7-0.1-4.1,0c-5.5,0.3-11,1.3-16.3,3.1c-5.3,1.9-10.3,4.5-14.9,7.7
			c-3.1,2.2-6.1,4.7-8.7,7.5c0.7-2.7,1.5-5.4,2.3-8.1C1292.6,1596.3,1297.1,1583.8,1303.4,1572.2z"/>
		<path class="st9" d="M493,1151.3c-0.3,0-0.6-0.1-0.9-0.1c-2.4-0.6-4.7-1.4-7-2.2c-2.6-1.4-5-3-7.4-4.8c-2.3-2.2-4.5-4.5-6.5-7
			c-1.9-3.1-3.6-6.4-5.1-9.7c-2.7-8.7-4.4-17.6-5.5-26.6c-0.3-4.4-0.6-8.8-0.9-13.2c-0.7-10.9-3-20.4-10.7-28.7
			c-6.7-7.2-17.9-12.8-27.8-12.8c-10.4,0.1-21.2,3.1-28.7,10.7c-7,7.1-13.4,17.4-12.8,27.8c1.9,32,4.4,66.5,23.1,93.8
			c9.8,14.3,21,26.6,35.8,36c15.6,9.9,33,15.3,51.4,16.8c2.3,0.2,4.5,0.1,6.8-0.2c-0.3,21.4-0.6,42.9-0.9,64.3
			c-0.8,58.2-1.6,116.4-2.4,174.6c-0.1,10.4,3.5,21,10.7,28.7c6.7,7.2,17.9,12.8,27.8,12.8c21.3-0.2,41.2-16.1,41.5-38.5
			c0.8-60.2,1.7-120.4,2.5-180.5c19.5-3.5,38-12.6,54.1-25.2c24.6-19.3,40-50.2,48.3-79.8c16.8-60.3,15-124,14.9-186
			c-0.1-34.1,0.4-68.4,4.9-102.3c1.2-9.6-4.3-21.8-10.7-28.7c-6.7-7.2-17.9-12.8-27.8-12.8c-10.4,0.1-21.2,3.1-28.7,10.7
			c-7.8,7.9-11.3,16.8-12.8,27.8c-8.4,64.7-2.4,130.1-6,195.1c-0.9,16.9-2.5,33.7-5.2,50.3c-2.8,14.5-6.5,28.8-12.1,42.5
			c-2.9,5.6-6.2,10.9-9.9,15.9c-2.5,2.6-5.1,5.1-7.8,7.3c0.2-15.2,0.4-30.4,0.6-45.6c1.4-103.4,2.9-206.8,4.3-310.3
			c0.8-58.2,1.6-116.4,2.4-174.6c0.1-10.4-3.5-21-10.7-28.7c-6.7-7.2-17.9-12.8-27.8-12.8c-21.3,0.2-41.2,16.1-41.5,38.5
			c-1.1,78.3-2.2,156.6-3.2,234.8c-5.1-2.7-9.9-5.8-14.5-9.2c-3.8-3.6-7.4-7.4-10.6-11.5c-3.4-5.3-6.3-10.8-8.8-16.5
			c-2.7-8.4-4.7-16.9-5.8-25.6c-1.5-23.9,1.7-47.8,4.9-71.5c1.3-9.6-4.3-21.9-10.7-28.7c-6.7-7.2-17.9-12.8-27.8-12.8
			c-10.4,0.1-21.2,3.1-28.7,10.7c-2.2,2.6-4.4,5.2-6.6,7.9c-3.8,6.1-5.9,12.8-6.2,20c-5.1,37.4-9.3,76.3,1.3,113.2
			c10.9,38.1,35,72.9,70.6,91.7c13.2,7,27.2,12.4,41.7,15.4c-0.7,53.4-1.5,106.9-2.2,160.3C496.3,1151.6,494.7,1151.4,493,1151.3z"
			/>
		<path class="st9" d="M2670.8,841.3c-3.7-10.3-6-21.1-8-31.9c-2.3-12.3-4.3-24.6-6.1-37c-2.7-21.3-4.6-42.7-5.6-64.2
			c-0.9-18.5-15.7-36.4-35.5-35.5c-18.5,0.8-36.4,15.6-35.5,35.5c1.7,35.1,5.6,70.1,11.5,104.8c2.5,15,5,30.4,9.9,44.8
			c5.9,17.3,14.8,35.1,29,47.1c9.8,8.3,19.8,14.4,32.1,18.4c5.7,1.8,11.5,2.7,17.3,2.9c1.6,58.7,4,117.4,7.1,176.1
			c2.4,44.7,5.2,89.3,8.4,133.9c0.7,9.5,3.5,18.2,10.4,25.1c6.2,6.2,16.3,10.8,25.1,10.4c18.1-0.8,36.9-15.7,35.5-35.5
			c-1.8-24.2-3.4-48.4-4.9-72.7c9.9-1.3,19.6-4.3,28.5-8.4c21-9.7,34.8-29.3,42.4-50.5c6.4-17.7,6.9-37.5,7.1-56.1
			c0.3-20.2,0.5-40.4,0.7-60.6c0.3-23.2,0.6-46.3,0.9-69.5c0.2-18.6-16.5-36.4-35.5-35.5c-19.4,0.9-35.3,15.6-35.5,35.5
			c-0.3,27.5-0.7,55-1,82.4c-0.3,23.4,0.8,47.4-1.6,70.8c-0.8,4.4-1.8,8.7-3.2,13c-0.8,1.4-1.6,2.9-2.4,4.2
			c-0.6,0.6-1.2,1.2-1.8,1.8c-0.9,0.5-1.8,1.1-2.7,1.6c-1.6-31.4-3-62.7-4.2-94.1c-2.6-67.4-4.1-134.9-4.7-202.4
			c3.6-0.8,7.2-2,10.8-3.7c40.6-18.7,66.1-61.8,68.5-105.6c1-18.6-17.1-36.3-35.5-35.5c-20.1,0.9-34.4,15.6-35.5,35.5
			c0,0.7-0.1,1.5-0.2,2.2c-0.9,4.4-2.1,8.7-3.6,12.9c-1.5,3-3.1,5.9-4.8,8.7c0.1-27.9,0.4-55.9,0.8-83.8
			c0.3-18.6-16.5-36.3-35.5-35.5c-19.5,0.9-35.2,15.6-35.5,35.5c-1.2,75.4-1.2,150.8,0.1,226.1c-1-0.9-1.9-1.9-2.8-2.9
			C2673.7,846.9,2672.2,844.1,2670.8,841.3z"/>
		<path class="st9" d="M3000,1190.7c0,0-126.2,3.4-249.5,20.4c-24.1-11.9-60.7-28.2-89.5-33.8c-47-9-106.6,83.2-106.6,83.2v0
			c-102.6,47.9-36.7,59-142.5,84.8c-111,27.1-84,198-237,194.3c-153-3.7-297,101.3-519.1,152.9c-222,51.5-831.1-143.8-891.1-154.6
			c-49.5-9-57.2-73.5-123.2-80.4c-1.7-19-4.6-37.8-12.9-42.8c-18-10.8-37.5-23.1-64.5-14.9c-14.8,4.5-35.1,34.7-51.1,61.3
			c-60.2-18-96.5-73.9-153.3-91.4C182.7,1315.5,0,1461.9,0,1461.9V2000h3000V1190.7z"/>
		<path class="st9" d="M1249,1656c-0.5-0.8-0.9-1.6-1.4-2.4c-0.5-0.8-1-1.5-1.6-2.2c-1.1-1.5-2.2-2.8-3.4-4.2
			c-4.9-5.2-10.8-9.2-17.2-11.9c-3.2-1.3-6.6-2.3-10-2.9c-3.4-0.6-6.9-0.8-10.5-0.6c-0.9,0-1.8,0.2-2.6,0.2
			c-0.9,0.1-1.7,0.2-2.6,0.4c-0.9,0.2-1.7,0.3-2.6,0.6c-0.9,0.2-1.7,0.5-2.6,0.8l-1.3,0.5c-0.4,0.2-0.8,0.3-1.3,0.5
			c-0.8,0.4-1.7,0.7-2.5,1.2c-0.8,0.4-1.6,0.9-2.4,1.4c-0.8,0.5-1.6,1.1-2.4,1.7l0,1.3l2.3,0.1c0.8,0,1.5,0,2.3,0.1
			c1.5,0.1,3.1,0.2,4.6,0.3c3.1,0.2,6.1,0.7,9.2,1.3c3,0.6,6,1.3,9,2.2c2.9,0.9,5.9,1.9,8.7,3.2c2.9,1.2,5.7,2.5,8.4,3.9
			c2.8,1.4,5.4,3.1,8.1,4.7c2.6,1.7,5.2,3.5,7.7,5.4c2.1,1.6,4.1,3.3,6,5c0,0.7-0.1,1.4-0.1,2.1c0,0.7-0.1,1.5-0.1,2.2
			c-1.5,7.9-2.2,15.9-1.8,23.9l1.2-0.1c1.1-2.2,2.1-4.4,3-6.5c0.5-1,0.9-2.1,1.4-3.1c0.4-1,0.9-2,1.3-3c1.7-4,3.4-7.9,5.1-11.6
			c3.3-7.4,6.7-14,10.5-19.9c1.9-2.9,3.9-5.7,6.1-8.2c2.2-2.5,4.6-5.1,7.4-7.4c2.8-2.3,5.8-4.7,9.2-6.8c1.7-1.2,3.5-2.2,5.4-3.4
			l0.7-0.4l0.7-0.4l1.5-0.8c1-0.6,2-1.2,3-1.9l0-1.3l-3.1,0.2l-1.6,0.1c-0.3,0-0.5,0-0.8,0l-0.8,0.1c-2.1,0.3-4.2,0.5-6.3,1
			c-4.2,0.8-8.2,2.4-12.1,4.3l-2.9,1.5c-0.9,0.6-1.8,1.2-2.7,1.8c-0.9,0.6-1.8,1.3-2.6,2l-1.3,1c-0.4,0.3-0.8,0.7-1.2,1.1l-1.2,1.1
			c-0.4,0.4-0.8,0.8-1.2,1.2l-2.2,2.5l-2.1,2.6c0,0,0,0,0,0c0.5-5.9,0.6-11.8,0.2-17.7c-0.2-2.6-0.4-5.3-0.8-7.9
			c-0.2-1.3-0.4-2.6-0.6-3.9c-0.2-1.3-0.4-2.6-0.7-3.9c-0.6-2.6-1.2-5.2-2-7.8c-0.4-1.3-0.8-2.6-1.3-3.9c-0.5-1.3-1-2.6-1.5-3.8
			c-2.2-5-5-10-8.9-14.1c-1.9-2.1-4.1-4-6.5-5.4c-2.4-1.4-5-2.5-7.7-2.7l-0.6,1.1c3.9,2.5,6.8,6.4,9,10.6c2.3,4.2,3.9,8.8,5.1,13.6
			c2.5,9.5,3.6,19.3,4.2,29.2c0.1,2.1,0.2,4.2,0.3,6.3c-1.4-2.4-3-4.7-4.8-6.8c-2.7-3.1-5.7-5.8-9-8c-3.3-2.2-7-3.8-10.7-4.8
			c-0.9-0.2-1.9-0.4-2.8-0.6c-0.5-0.1-0.9-0.2-1.4-0.2c-0.5-0.1-1-0.1-1.4-0.1c-1-0.1-1.9-0.2-2.9-0.2c-1,0-1.9,0.1-2.9,0.1
			c-3.8,0.3-7.5,1.2-11.1,3.1l-0.2,1.3l2.4,0.5c0.8,0.2,1.6,0.3,2.4,0.5l2.3,0.6c0.4,0.1,0.8,0.2,1.2,0.3l1.1,0.4l2.3,0.8l2.2,0.9
			l1.1,0.5c0.4,0.2,0.7,0.4,1.1,0.5l2.2,1.1c2.8,1.6,5.6,3.3,8.1,5.3c2.5,2.1,4.9,4.3,7,6.8c4.3,5,7.7,10.8,10.3,17
			c1.3,3.1,2.4,6.3,3.3,9.6c0.1,0.3,0.2,0.6,0.2,0.9c0,0.2,0,0.5,0,0.7C1250.5,1659,1249.8,1657.5,1249,1656z"/>
		<path class="st9" d="M682.6,1402.2c3.5-3.3,7.3-6.2,11.5-8.5c4.1-2.3,8.8-3.9,13.5-3.9l0-1.3c-2.5-1.3-5.3-1.8-8.2-1.9
			c-2.9-0.1-5.8,0.3-8.5,1c-5.6,1.4-10.6,4-15.2,6.9c-1.1,0.8-2.2,1.5-3.3,2.3c-1.1,0.8-2.1,1.7-3.1,2.5c-2.1,1.7-4,3.5-5.8,5.4
			c-0.9,0.9-1.8,1.9-2.7,2.9c-0.9,1-1.7,1.9-2.6,2.9c-1.7,2-3.2,4-4.8,6.1c-3.4,4.7-6.4,9.6-9,14.7c0,0,0,0,0,0l-0.5-3.3l-0.7-3.2
			c-0.1-0.5-0.3-1.1-0.4-1.6l-0.5-1.6c-0.2-0.5-0.3-1.1-0.5-1.6l-0.6-1.5c-0.4-1-0.8-2.1-1.3-3.1c-0.5-1-1-2-1.5-3l-1.7-2.8
			c-2.5-3.6-5.3-7.1-8.5-10c-1.6-1.6-3.3-2.8-5-4.2l-0.6-0.5c-0.2-0.2-0.5-0.3-0.7-0.5l-1.4-0.9l-2.7-1.8l-0.7,1.1
			c0.5,1.1,1.1,2.2,1.7,3.2l0.9,1.5l0.4,0.7l0.4,0.7c1,2,2.1,3.8,3,5.7c1.9,3.6,3.4,7.2,4.7,10.6c1.3,3.4,2.1,6.8,2.7,10.1
			c0.7,3.3,1,6.7,1.2,10.1c0.3,6.9-0.1,14.2-0.9,22.1c-0.4,4-0.9,8-1.5,12.3c-0.1,1.1-0.3,2.1-0.4,3.2c-0.1,1.1-0.3,2.2-0.4,3.3
			c-0.3,2.2-0.5,4.5-0.7,7l1,0.7c4.5-6.4,8.1-13.4,10.8-20.8c0.3-0.6,0.7-1.3,1-1.9c0.3-0.6,0.7-1.2,1-1.8c2.6-0.4,5.3-0.8,7.9-1
			c3.2-0.3,6.4-0.4,9.6-0.4c3.2,0,6.4,0.1,9.6,0.4c3.2,0.3,6.4,0.7,9.5,1.3c3.2,0.5,6.3,1.2,9.4,2.1c3.1,0.8,6.1,1.9,9.1,3
			c3,1.1,6,2.4,8.8,3.8c1.5,0.7,2.9,1.4,4.3,2.2c0.7,0.4,1.4,0.8,2.1,1.2l2.1,1.2l0.7-1.1c-0.3-1-0.8-1.8-1.2-2.7
			c-0.4-0.8-0.9-1.7-1.4-2.5c-0.5-0.8-1.1-1.5-1.6-2.3c-0.3-0.4-0.6-0.7-0.9-1.1l-0.9-1.1c-0.6-0.7-1.2-1.4-1.9-2
			c-0.6-0.7-1.3-1.2-2-1.9c-0.7-0.6-1.4-1.2-2.1-1.8c-0.7-0.5-1.5-1.1-2.2-1.6c-3-2-6.3-3.7-9.6-5.1c-3.4-1.3-6.9-2.3-10.4-3
			c-7.1-1.2-14.4-1.1-21.5,0.6c-1.8,0.4-3.5,0.9-5.2,1.6c-0.9,0.3-1.7,0.6-2.5,1c-0.8,0.4-1.7,0.8-2.5,1.2c-1.5,0.8-2.9,1.6-4.3,2.6
			c0.1-0.2,0.2-0.4,0.3-0.6c0.2-0.2,0.5-0.4,0.7-0.6c2.5-2.2,5.1-4.3,7.9-6.2c5.5-3.7,11.5-6.7,17.9-8.5c3.2-0.9,6.4-1.5,9.7-1.9
			c3.3-0.3,6.6-0.3,9.9-0.1l2.5,0.3c0.4,0,0.8,0.1,1.2,0.1l1.2,0.2l2.5,0.4l2.4,0.6l1.2,0.3c0.4,0.1,0.8,0.2,1.2,0.4l2.4,0.7
			c0.8,0.2,1.6,0.6,2.4,0.8l2.4,0.9l0.5-1.2c-2.2-3.5-5-6.3-8.3-8.6c-0.8-0.6-1.6-1.1-2.5-1.6c-0.9-0.5-1.7-0.9-2.6-1.4
			c-0.4-0.2-0.9-0.5-1.3-0.7c-0.5-0.2-0.9-0.4-1.4-0.6c-0.9-0.3-1.9-0.7-2.8-1c-3.9-1.1-7.9-1.8-12-1.8c-4.1,0-8.2,0.6-12.1,1.7
			c-2.7,0.8-5.3,1.8-7.8,3.1c1.2-1.7,2.3-3.4,3.5-5C669.4,1416.3,675.5,1408.8,682.6,1402.2z"/>
		<path class="st9" d="M1583.8,1681.9c-5-0.6-10-0.8-15-0.5c-1.3,0.1-2.5,0.2-3.8,0.4c-1.2,0.2-2.5,0.3-3.7,0.6
			c-1.2,0.2-2.5,0.4-3.7,0.7c-1.2,0.3-2.4,0.6-3.6,1l-1.8,0.6c-0.6,0.2-1.2,0.4-1.8,0.6c-1.2,0.5-2.3,0.9-3.5,1.4
			c-1.1,0.5-2.3,1.1-3.4,1.7c-1.1,0.6-2.2,1.3-3.2,2.1l0.1,1.5l3.3,0c1.1,0,2.2,0,3.3,0c2.2,0.1,4.4,0.1,6.7,0.3
			c4.4,0.2,8.8,0.7,13.2,1.3c4.4,0.7,8.7,1.4,13,2.4c4.3,1,8.6,2.1,12.7,3.4c4.2,1.3,8.3,2.7,12.4,4.3c4.1,1.6,8,3.4,11.9,5.3
			c0.5,0.2,1,0.5,1.4,0.7c-0.4,4.3-0.8,8.5-1.3,12.7l1.7,0.3c1.3-1.6,2.4-3.2,3.4-4.8c0.4,1.6,0.7,3.2,1,4.8l1.8,0c0,0,0,0,0,0
			l0.1,0.1c1.5-2.3,3.1-4.6,4.8-6.8c0.1,0.1,0.2,0.1,0.3,0.2c1.1,4.8,2.7,9.6,4.6,14.3l1.7-0.6c0.7-2.9,1.2-5.6,1.6-8.3
			c0-0.1,0-0.1,0-0.2c0.4,0.3,0.7,0.5,1.1,0.8l1.2-1.1c-0.4-1.5-0.9-2.9-1.5-4.3c0.2-1,0.3-2,0.5-3.1c0.6-3.7,1.2-7.2,1.8-10.7
			c2.4-2.5,4.9-4.9,7.5-7.2c3-2.7,6.1-5.2,9.3-7.6c3.2-2.5,6.5-4.7,9.9-6.9c3.4-2.1,7-4.1,10.5-6c3.6-1.8,7.3-3.5,11-5
			c1.9-0.8,3.8-1.5,5.7-2.2c0.9-0.4,1.9-0.7,2.9-1l2.9-1l-0.4-1.5c-1.2-0.4-2.3-0.7-3.5-1c-1.2-0.3-2.3-0.5-3.5-0.6
			c-1.2-0.2-2.3-0.3-3.5-0.4c-0.6-0.1-1.2-0.1-1.7-0.1l-1.7,0c-1.2,0-2.3,0-3.5,0.1c-1.2,0.1-2.3,0.2-3.4,0.4
			c-1.2,0.1-2.3,0.3-3.4,0.5c-1.1,0.2-2.3,0.4-3.4,0.7c-4.5,1.1-8.8,2.7-12.9,4.7c-4.1,2-8,4.4-11.6,7.1c-0.4,0.3-0.8,0.6-1.2,1
			c0.5-1.5,1-2.9,1.5-4.4c1.5-4,3.1-7.8,5.3-11.5c2.1-3.7,4.4-7.4,7.3-11.1c2.9-3.7,6.1-7.5,10-11.3c1.8-2,4-3.8,6.1-5.9l0.8-0.8
			l0.8-0.7l1.7-1.5c1.1-1.1,2.3-2.1,3.4-3.3l-0.5-1.4l-4.3,1.5l-2.1,0.7c-0.4,0.1-0.7,0.2-1.1,0.4l-1,0.4c-2.8,1.2-5.6,2.2-8.2,3.7
			c-5.4,2.6-10.4,6-15,9.6l-3.3,2.9c-1.1,1-2,2.1-3.1,3.1c-1.1,1-1.9,2.1-2.8,3.2l-1.4,1.7c-0.5,0.5-0.8,1.2-1.2,1.7l-1.2,1.7
			c-0.4,0.6-0.8,1.2-1.2,1.8l-0.4,0.7c0-1.8-0.1-3.6-0.3-5.4c-0.2-3.1-0.6-6.1-1.1-9.2c-0.3-1.5-0.6-3.1-0.9-4.6
			c-0.3-1.5-0.6-3.1-1-4.6c-0.8-3.1-1.7-6.2-2.9-9.2c-0.6-1.5-1.2-3.1-1.8-4.6c-0.7-1.5-1.4-3-2.2-4.6c-3.1-6-7.2-12-12.6-17.1
			c-2.7-2.6-5.8-4.9-9.2-6.8c-3.4-1.9-7.2-3.2-11-3.7l-0.9,1.3c5.5,3.2,9.8,7.9,12.9,13c3.2,5.1,5.5,10.6,7.2,16.2
			c3.5,11.2,5.2,22.8,6,34.3c0.6,7.7,0.8,15.5,0.7,23.2c-1.8-2.5-3.8-4.8-6-7.1c-3.8-3.8-8.2-7.1-12.9-9.9c-4.8-2.8-10-4.9-15.4-6.4
			c-1.3-0.3-2.7-0.6-4.1-0.9c-0.7-0.1-1.4-0.3-2-0.4c-0.7-0.1-1.4-0.2-2.1-0.3c-1.4-0.1-2.7-0.3-4.1-0.4c-1.4,0-2.7-0.1-4.1-0.1
			c-5.4,0.1-10.8,0.9-15.9,2.8l-0.3,1.5l3.4,0.8c1.1,0.3,2.3,0.4,3.4,0.8l3.3,0.9c0.6,0.2,1.1,0.3,1.7,0.5l1.6,0.5l3.3,1.1l3.2,1.2
			l1.6,0.6c0.5,0.2,1,0.5,1.6,0.7l3.1,1.4c4,2.1,7.9,4.2,11.5,6.8c3.6,2.6,6.9,5.4,10,8.5c3.3,3.3,6.2,6.8,8.8,10.5
			c-3.6-1.7-7.4-3.2-11.4-4.4C1593.6,1683.6,1588.7,1682.6,1583.8,1681.9z"/>
		<path class="st9" d="M2868,1171.3c-3.5-1.3-7.1-2.3-10.8-2.8c-0.9-0.1-1.8-0.2-2.7-0.3c-0.9-0.1-1.8-0.1-2.7-0.1
			c-0.9,0-1.8,0-2.7,0.1c-0.9,0.1-1.8,0.2-2.7,0.3l-1.3,0.2c-0.4,0.1-0.9,0.1-1.3,0.3c-0.9,0.2-1.7,0.4-2.6,0.7
			c-0.9,0.2-1.7,0.6-2.6,1c-0.8,0.4-1.7,0.8-2.5,1.3l0,1.4l2.4,0.5c0.8,0.2,1.6,0.3,2.4,0.5c1.6,0.4,3.2,0.8,4.8,1.3
			c3.2,0.9,6.3,2,9.4,3.2c3.1,1.3,6.2,2.6,9.2,4.2c3,1.6,6,3.2,8.9,5.1c2.9,1.8,5.8,3.7,8.6,5.8c2.4,1.8,4.8,3.7,7.1,5.7
			c1.1,3.1,2.2,6.2,3.3,9.4c0.3,0.9,0.6,1.8,1,2.7c-0.2,1.3-0.4,2.6-0.4,4l1.1,0.8c0.2-0.3,0.5-0.6,0.7-0.8c0,0.1,0,0.1,0.1,0.2
			c0.8,2.4,1.7,4.8,2.8,7.3l1.4,0.3c0.6-4.4,0.9-8.9,0.9-13.4c0.1-0.1,0.1-0.1,0.2-0.2c1.7,1.8,3.4,3.6,4.9,5.5l0.1-0.1c0,0,0,0,0,0
			l1.4-0.2c-0.1-1.5-0.1-3-0.1-4.5c1.1,1.4,2.2,2.7,3.5,4l1.3-0.4c-1.2-3.7-2.3-7.5-3.3-11.3c0.3-0.3,0.6-0.5,1-0.8
			c2.7-2.1,5.4-4.2,8.2-6.1c2.8-1.9,5.7-3.7,8.7-5.3c3-1.7,6-3.2,9.2-4.6c3.1-1.4,6.3-2.5,9.6-3.6c3.3-1,6.6-2,9.9-2.7
			c1.7-0.4,3.4-0.7,5.1-1c0.8-0.2,1.7-0.3,2.6-0.4l2.6-0.4l-0.2-1.4c-1-0.6-1.9-1-2.9-1.5c-1-0.4-1.9-0.9-2.9-1.2
			c-1-0.4-1.9-0.6-2.9-0.9c-0.5-0.2-1-0.3-1.5-0.4l-1.5-0.3c-1-0.2-2-0.3-3-0.5c-1-0.1-2-0.2-3-0.2c-1-0.1-2-0.1-3-0.1
			c-1,0-2,0-2.9,0.1c-3.9,0.3-7.8,1-11.5,2.1c-3.7,1.2-7.3,2.6-10.6,4.5c-2.8,1.5-5.4,3.3-7.9,5.3c1.3-3.7,2.9-7.2,4.8-10.5
			c1.8-3.1,3.8-6,6.1-8.8c2.3-2.7,4.9-5.1,7.6-7.5l2.1-1.6c0.4-0.3,0.7-0.5,1.1-0.8l1.1-0.7l2.2-1.5l2.3-1.3l1.2-0.7
			c0.4-0.2,0.8-0.4,1.2-0.6l2.4-1.2c0.8-0.4,1.6-0.7,2.5-1.1l2.5-1.1l-0.5-1.3c-4.3-1.1-8.6-1.3-12.7-0.7c-1,0.1-2.1,0.3-3.1,0.5
			c-1,0.2-2,0.6-3.1,0.9c-0.5,0.2-1,0.3-1.5,0.5c-0.5,0.2-1,0.4-1.5,0.6c-1,0.4-2,0.8-2.9,1.3c-3.8,2-7.5,4.5-10.6,7.6
			c-3.2,3.1-5.9,6.6-8.1,10.4c-1.3,2.3-2.4,4.6-3.3,7.1c-1.5-7-2.7-14-3.7-21c-1.5-10.5-2.3-21.1-1.7-31.6
			c0.3-5.2,1.1-10.5,2.6-15.4c1.5-4.9,3.9-9.7,7.5-13.2l-0.9-1c-2.9,0.8-5.5,2.5-7.8,4.6c-2.3,2.1-4.2,4.6-5.9,7.2
			c-3.3,5.3-5.3,11.1-6.6,16.9c-0.3,1.5-0.6,2.9-0.9,4.4c-0.2,1.5-0.4,2.9-0.6,4.4c-0.4,2.9-0.5,5.8-0.5,8.7c0,1.4,0,2.9,0,4.3
			c0,1.4,0.1,2.8,0.2,4.3c0.2,2.8,0.5,5.6,0.9,8.4c0.2,1.6,0.5,3.3,0.8,4.9l-0.4-0.5c-0.4-0.5-0.8-1-1.2-1.5l-1.3-1.4
			c-0.4-0.5-0.8-1-1.3-1.4l-1.4-1.3c-0.9-0.9-1.8-1.8-2.8-2.6c-1-0.8-1.9-1.7-2.9-2.4l-3.1-2.2c-4.2-2.8-8.6-5.2-13.3-7
			c-2.3-1-4.7-1.6-7-2.4l-0.9-0.3c-0.3-0.1-0.6-0.1-0.9-0.2l-1.8-0.4l-3.5-0.8l-0.2,1.3c1.1,1,2.1,1.8,3.2,2.6l1.6,1.2l0.8,0.6
			l0.7,0.6c2,1.7,3.9,3,5.7,4.6c3.7,2.9,6.9,6,9.8,9c2.9,3,5.3,6.1,7.6,9.2c2.3,3.1,4.3,6.4,6.1,9.8c0.7,1.2,1.3,2.5,2,3.8
			c-0.4-0.2-0.7-0.5-1.1-0.7C2875,1174.4,2871.5,1172.7,2868,1171.3z"/>
	</g>
</g>
</svg>
